<svg xmlns="http://www.w3.org/2000/svg" width="23" height="20" viewBox="0 0 23 20"><g><g><path fill="#cdcdcd" d="M22.88 8.71a.601.601 0 0 1-.483.238.602.602 0 0 1-.352-.113L11.504 1.298.962 8.835a.607.607 0 0 1-.834-.125.574.574 0 0 1 .129-.815L11.15.105a.61.61 0 0 1 .706 0l10.893 7.79c.267.19.324.555.13.815zm-2.419.84v9.866a.59.59 0 0 1-.597.583h-5.971a.591.591 0 0 1-.598-.583v-5.65c0-.965-.803-1.75-1.791-1.75-.988 0-1.792.785-1.792 1.75v5.65c0 .017 0 .031-.002.045a.592.592 0 0 1-.595.538H3.144a.59.59 0 0 1-.598-.583V9.55a.59.59 0 0 1 .598-.583.59.59 0 0 1 .597.583v9.282h4.777v-5.066c0-1.608 1.34-2.916 2.986-2.916 1.646 0 2.986 1.308 2.986 2.916v5.066h4.777V9.55a.59.59 0 0 1 .597-.583.59.59 0 0 1 .597.583z"/></g></g></svg>